HIERARCHY
ROOT Hips
{
  OFFSET 0.000000 0.000000 0.000000
  CHANNELS 6 Xposition Yposition Zposition Xrotation Yrotation Zrotation
  JOINT Spine
  {
    OFFSET 0.785918 22.667751 -11.192521
    CHANNELS 3 Xrotation Yrotation Zrotation
    JOINT Chest
    {
      OFFSET 0.785918 22.667751 -11.192521
      CHANNELS 3 Xrotation Yrotation Zrotation
      JOINT Neck
      {
        OFFSET 0.000000 4.280912 0.000000
        CHANNELS 3 Xrotation Yrotation Zrotation
        JOINT Head
        {
          OFFSET 0.000000 4.254871 0.000000
          CHANNELS 3 Xrotation Yrotation Zrotation
          End Site
          {
            OFFSET 0.000000 1.276461 0.000000
          }
        }
      }
      JOINT LeftCollar
      {
        OFFSET 3.000000 4.000000 0.000000
        CHANNELS 3 Xrotation Yrotation Zrotation
        JOINT LeftShoulder
        {
          OFFSET 16.621605 -2.780659 -2.297863
          CHANNELS 3 Xrotation Yrotation Zrotation
          JOINT LeftArm
          {
            OFFSET 7.570161 -18.010043 0.790673
            CHANNELS 3 Xrotation Yrotation Zrotation
            JOINT LeftForeArm
            {
              OFFSET 4.258502 -21.330331 -3.694189
              CHANNELS 3 Xrotation Yrotation Zrotation
              JOINT LeftHand
              {
                OFFSET -1.020528 -3.245478 -1.657259
                CHANNELS 3 Xrotation Yrotation Zrotation
                End Site
                {
                  OFFSET -0.306158 -0.973643 -0.497178
                }
              }
            }
          }
        }
      }
      JOINT RightCollar
      {
        OFFSET -3.000000 4.000000 0.000000
        CHANNELS 3 Xrotation Yrotation Zrotation
        JOINT RightShoulder
        {
          OFFSET -16.621605 2.780659 2.297863
          CHANNELS 3 Xrotation Yrotation Zrotation
          JOINT RightArm
          {
            OFFSET -7.047239 -26.880381 -0.525442
            CHANNELS 3 Xrotation Yrotation Zrotation
            JOINT RightForeArm
            {
              OFFSET -7.219958 -17.761464 -6.028907
              CHANNELS 3 Xrotation Yrotation Zrotation
              JOINT RightHand
              {
                OFFSET 1.362391 -2.129385 -3.788414
                CHANNELS 3 Xrotation Yrotation Zrotation
                End Site
                {
                  OFFSET 0.408717 -0.638815 -1.136524
                }
              }
            }
          }
        }
      }
    }
  }
  JOINT LeftUpLeg
  {
    OFFSET 10.014631 -0.404759 2.482655
    CHANNELS 3 Xrotation Yrotation Zrotation
    JOINT LeftLeg
    {
      OFFSET 2.113296 -38.097659 -0.269871
      CHANNELS 3 Xrotation Yrotation Zrotation
      JOINT LeftFoot
      {
        OFFSET -0.633741 -33.349279 19.614675
        CHANNELS 3 Xrotation Yrotation Zrotation
        End Site
        {
          OFFSET -0.190122 -10.004784 5.884402
        }
      }
    }
  }
  JOINT RightUpLeg
  {
    OFFSET -10.014631 0.404759 -2.482655
    CHANNELS 3 Xrotation Yrotation Zrotation
    JOINT RightLeg
    {
      OFFSET 1.865041 -30.879068 8.259322
      CHANNELS 3 Xrotation Yrotation Zrotation
      JOINT RightFoot
      {
        OFFSET -6.913018 -39.753150 16.368861
        CHANNELS 3 Xrotation Yrotation Zrotation
        End Site
        {
          OFFSET -2.073905 -11.925945 4.910658
        }
      }
    }
  }
}
MOTION
Frames: 19
Frame Time: 0.083333
0.095212 0.188964 0.106194 -2.246541 -1.534075 -3.113335 0.000000 0.000000 0.000000 -26.004750 11.608608 -3.426121 -50.582239 -8.423651 0.635914 0.000000 0.000000 0.000000 28.671040 -7.773505 9.506569 1.846547 2.960059 60.752824 -15.519762 -3.443150 25.295579 -82.304530 -9.348741 78.302362 0.000000 0.000000 0.000000 28.671040 -7.773505 9.506569 9.364177 3.059943 -41.700408 -11.694230 21.044082 -21.374463 14.824934 57.542515 115.432838 0.000000 0.000000 0.000000 6.227630 2.242725 -0.566973 1.430502 -2.179090 0.116422 0.000000 0.000000 0.000000 5.010288 -0.750129 -8.094076 11.451031 1.176917 5.904531 0.000000 0.000000 0.000000
0.095531 0.188646 0.106605 -1.939347 -1.546606 -3.137334 0.000000 0.000000 0.000000 -26.000451 11.745261 -3.393997 -50.305642 -8.672592 0.470872 0.000000 0.000000 0.000000 28.360091 -7.773974 9.504190 1.985120 2.676140 56.838482 -14.886622 -3.235677 26.343965 -80.505154 -10.361366 62.436756 0.000000 0.000000 0.000000 28.360091 -7.773974 9.504190 8.662897 2.524531 -38.887179 -9.831460 20.896574 -21.919755 14.199554 57.351840 113.342331 0.000000 0.000000 0.000000 5.945134 2.232155 -0.230851 2.712633 -2.142801 -0.307859 0.000000 0.000000 0.000000 7.339754 -0.043193 -7.294884 9.208836 -0.104603 4.371417 0.000000 0.000000 0.000000
0.095973 0.188148 0.107118 -1.587612 -1.570214 -3.182798 0.000000 0.000000 0.000000 -26.001647 11.745914 -3.393950 -49.958376 -8.888334 0.459298 0.000000 0.000000 0.000000 28.004918 -7.774099 9.503589 2.368056 2.530243 51.524672 -14.260484 -3.651663 28.388075 -79.022760 -12.375779 32.821102 0.000000 0.000000 0.000000 28.004918 -7.774099 9.503589 7.496271 2.053707 -35.659798 -7.639513 20.709979 -22.655723 12.158798 57.639195 112.300449 0.000000 0.000000 0.000000 5.659738 2.245496 -0.041467 3.835176 -1.988606 -0.298699 0.000000 0.000000 0.000000 12.499478 1.507227 -5.149559 0.169995 -3.214790 0.493114 0.000000 0.000000 0.000000
0.096727 0.187058 0.108421 -1.255013 -1.553607 -3.149547 0.000000 0.000000 0.000000 -26.008109 11.447318 -3.371675 -49.294946 -8.835441 0.710741 0.000000 0.000000 0.000000 27.685614 -7.771886 9.505084 3.520150 2.644240 45.983610 -13.516184 -5.054583 29.054215 -76.233160 -17.523538 18.590047 0.000000 0.000000 0.000000 27.685614 -7.771886 9.505084 6.959841 1.835544 -31.975034 -5.356567 20.310011 -23.856225 9.559055 56.895899 110.458494 0.000000 0.000000 0.000000 5.409653 2.217510 -0.021160 3.231638 -1.966592 -0.204012 0.000000 0.000000 0.000000 15.427187 2.287299 -3.824832 -6.464666 -4.943606 -2.578252 0.000000 0.000000 0.000000
0.098069 0.185605 0.110478 -0.588323 -1.518196 -3.078587 0.000000 0.000000 0.000000 -26.010190 11.177755 -3.593769 -48.888143 -8.915406 1.023630 0.000000 0.000000 0.000000 27.048376 -7.771115 9.507020 4.460937 2.809029 39.883655 -11.755144 -7.106655 28.050844 -70.510300 -24.275379 -36.074731 0.000000 0.000000 0.000000 27.048376 -7.771115 9.507020 6.466960 1.709986 -28.507979 -3.260691 19.575022 -24.419066 6.707900 55.634893 107.221717 0.000000 0.000000 0.000000 4.739972 2.135493 0.048231 2.191182 -1.829543 0.057331 0.000000 0.000000 0.000000 14.670037 2.190085 -3.843811 -6.798327 -4.829052 -2.266367 0.000000 0.000000 0.000000
0.099890 0.184431 0.112509 0.112654 -1.518196 -3.076545 0.000000 0.000000 0.000000 -26.008706 11.142553 -3.699241 -48.020423 -9.219006 1.187014 0.000000 0.000000 0.000000 26.360052 -7.771113 9.506406 4.371406 2.787830 33.946043 -9.215662 -8.455327 26.407793 -62.315051 -28.376137 9.517561 0.000000 0.000000 0.000000 26.360052 -7.771113 9.506406 5.894705 1.396538 -25.184678 -1.277314 18.260700 -23.790737 2.721966 53.699194 101.155964 0.000000 0.000000 0.000000 3.536008 2.022400 0.390895 -0.271579 -1.678753 0.184947 0.000000 0.000000 0.000000 13.880926 2.140824 -3.838335 -7.088353 -4.685510 -1.839717 0.000000 0.000000 0.000000
0.102264 0.183410 0.114435 0.959339 -1.502705 -3.042037 0.000000 0.000000 0.000000 -26.001534 11.220593 -3.666840 -47.134811 -9.510678 1.107016 0.000000 0.000000 0.000000 25.528408 -7.770407 9.502825 5.744192 2.738889 28.263975 -7.721332 -8.377845 21.762946 -48.332710 -33.636068 7.755657 0.000000 0.000000 0.000000 25.528408 -7.770407 9.502825 6.031507 0.861995 -21.217190 0.282194 15.862138 -22.080066 -1.746838 48.044516 85.399310 0.000000 0.000000 0.000000 1.149708 1.741244 1.007365 -2.367366 -1.495257 -0.109484 0.000000 0.000000 0.000000 12.718792 2.092473 -3.370481 -6.872718 -4.696195 -2.508614 0.000000 0.000000 0.000000
0.104305 0.182136 0.116262 1.751005 -1.474321 -2.979978 0.000000 0.000000 0.000000 -25.999551 11.109147 -3.852616 -46.976114 -9.740929 1.083544 0.000000 0.000000 0.000000 24.761618 -7.770194 9.502809 4.629642 2.503312 22.854989 -7.235289 -6.499534 18.101660 -33.086325 -29.091058 19.260024 0.000000 0.000000 0.000000 24.761618 -7.770194 9.502809 5.362542 0.602360 -16.834297 1.441989 12.887206 -19.236199 -2.006339 40.109884 58.600376 0.000000 0.000000 0.000000 -1.107728 1.482621 1.212857 0.164761 -1.084787 0.045703 0.000000 0.000000 0.000000 11.609991 2.014591 -3.071656 -7.436204 -4.628602 -2.765995 0.000000 0.000000 0.000000
0.105218 0.180683 0.118045 2.331654 -1.450298 -2.926232 0.000000 0.000000 0.000000 -26.010238 10.648904 -4.084530 -46.882859 -9.743986 1.333357 0.000000 0.000000 0.000000 24.202922 -7.769186 9.506639 2.165941 2.226307 18.905852 -7.463443 -3.937096 12.235527 -17.583243 -16.093992 27.529395 0.000000 0.000000 0.000000 24.202922 -7.769186 9.506639 4.976954 0.682525 -11.730532 1.191436 9.618889 -17.025530 -5.409056 32.025417 34.017513 0.000000 0.000000 0.000000 -1.740951 1.414224 1.831772 -0.477988 -1.032574 -0.528416 0.000000 0.000000 0.000000 9.823850 1.868677 -2.465414 -8.274229 -4.316782 -3.064326 0.000000 0.000000 0.000000
0.105150 0.179042 0.119153 1.989327 -1.370113 -2.758408 0.000000 0.000000 0.000000 -25.999087 10.791598 -4.155878 -45.830165 -10.097490 1.028461 0.000000 0.000000 0.000000 24.569791 -7.769244 9.505597 2.345374 1.993874 12.740400 -7.671438 -3.119973 8.807200 -8.905666 -8.590407 18.571213 0.000000 0.000000 0.000000 24.569791 -7.769244 9.505597 4.760071 0.302538 -6.591940 1.854010 7.674832 -16.496249 -4.888965 25.572969 21.473517 0.000000 0.000000 0.000000 -1.485884 1.337626 2.258782 -1.821714 -1.078780 -1.200076 0.000000 0.000000 0.000000 7.512490 1.466697 -1.935629 -7.224715 -3.701839 -3.394241 0.000000 0.000000 0.000000
0.104802 0.177283 0.119739 1.577216 -1.294054 -2.602535 0.000000 0.000000 0.000000 -25.976481 11.320393 -4.080913 -44.668123 -10.585922 0.446746 0.000000 0.000000 0.000000 25.004046 -7.769893 9.500394 0.896549 0.745374 6.076574 -6.903354 -2.442387 7.867630 -3.329594 -5.029814 11.375226 0.000000 0.000000 0.000000 25.004046 -7.769893 9.500394 4.234370 -0.296585 -3.142117 1.545343 5.658322 -14.026031 -4.351706 18.379927 13.110120 0.000000 0.000000 0.000000 -1.097512 1.274324 2.620431 -1.118174 -0.984069 -1.617084 0.000000 0.000000 0.000000 6.260737 0.963513 -3.056619 -6.109157 -3.183512 -1.931182 0.000000 0.000000 0.000000
0.104158 0.175819 0.119092 1.341394 -1.199519 -2.408440 0.000000 0.000000 0.000000 -25.959865 11.607012 -4.206729 -43.949209 -10.977485 0.061013 0.000000 0.000000 0.000000 25.274489 -7.770642 9.498203 -1.352545 -0.749782 -0.519767 -6.022609 -1.661462 9.391593 -0.123432 -1.972717 7.460769 0.000000 0.000000 0.000000 25.274489 -7.770642 9.498203 3.033804 -0.385853 -1.614229 1.269652 3.011764 -7.579956 -2.837763 8.797213 6.868080 0.000000 0.000000 0.000000 -0.362874 1.227784 2.930647 -1.497335 -0.649948 -1.593445 0.000000 0.000000 0.000000 6.266288 0.896807 -2.862984 -6.517137 -3.254334 -2.527035 0.000000 0.000000 0.000000
0.103295 0.174135 0.118224 1.030542 -1.109620 -2.226870 0.000000 0.000000 0.000000 -25.949021 11.746318 -4.504873 -43.233268 -11.312149 0.017211 0.000000 0.000000 0.000000 25.620196 -7.772103 9.498138 -2.633434 -1.697632 -4.134632 -5.384384 -0.891345 9.886301 1.090163 0.331443 4.919215 0.000000 0.000000 0.000000 25.620196 -7.772103 9.498138 1.463653 -0.086583 -1.303889 0.604888 0.524187 0.445748 -1.827404 0.180535 2.435495 0.000000 0.000000 0.000000 1.647197 1.283188 3.363144 -3.596445 -0.230160 -1.541565 0.000000 0.000000 0.000000 6.489417 0.815096 -2.892355 -6.031843 -3.259270 -2.697291 0.000000 0.000000 0.000000
0.102231 0.171916 0.118284 0.902798 -1.045151 -2.096187 0.000000 0.000000 0.000000 -25.946959 11.675519 -4.673046 -42.857861 -11.377441 0.052573 0.000000 0.000000 0.000000 25.773081 -7.772084 9.499065 -5.013146 -2.825421 -3.905422 -3.407187 0.588645 8.014168 1.434441 1.780589 3.160594 0.000000 0.000000 0.000000 25.773081 -7.772084 9.499065 -1.189388 0.549645 -1.369148 1.109296 -0.737630 4.823879 0.209917 -4.860479 1.367174 0.000000 0.000000 0.000000 4.248999 1.413576 3.382169 -6.089456 -0.010494 -1.316087 0.000000 0.000000 0.000000 6.649238 0.741561 -3.034141 -5.962419 -3.178948 -2.464702 0.000000 0.000000 0.000000
0.101319 0.169650 0.119205 0.855171 -0.963160 -1.927985 0.000000 0.000000 0.000000 -25.945657 11.540681 -4.836696 -42.841091 -11.358937 -0.020069 0.000000 0.000000 0.000000 25.853440 -7.771371 9.500190 -4.793954 -2.421790 -2.408801 -2.185226 0.878398 5.295911 0.520765 2.204660 2.173101 0.000000 0.000000 0.000000 25.853440 -7.771371 9.500190 -0.850579 0.611322 -1.674859 2.308219 -1.440223 5.698029 -0.970622 -5.212155 1.576961 0.000000 0.000000 0.000000 5.958102 1.445129 3.136475 -6.911610 -0.079025 -1.279337 0.000000 0.000000 0.000000 6.697174 0.653163 -3.134279 -6.121299 -3.163272 -2.474791 0.000000 0.000000 0.000000
0.100844 0.168191 0.119752 0.738777 -0.951763 -1.907697 0.000000 0.000000 0.000000 -25.944676 11.555757 -4.844490 -42.652642 -11.409419 -0.055651 0.000000 0.000000 0.000000 25.972176 -7.771435 9.500218 -4.640139 -2.172671 -0.693020 -1.760474 0.748720 4.151051 0.068392 1.429696 3.138922 0.000000 0.000000 0.000000 25.972176 -7.771435 9.500218 -0.644808 0.571333 -1.588787 2.474366 -1.373813 5.128623 -1.574049 -4.312364 1.483171 0.000000 0.000000 0.000000 9.295455 1.648642 3.380029 -10.138849 -0.100319 -1.703789 0.000000 0.000000 0.000000 6.834555 0.650065 -3.135258 -5.947371 -3.146647 -2.433877 0.000000 0.000000 0.000000
0.100774 0.167546 0.119910 0.679528 -0.978901 -1.965223 0.000000 0.000000 0.000000 -25.946833 11.549709 -4.733865 -42.652857 -11.387420 -0.105692 0.000000 0.000000 0.000000 26.017450 -7.771145 9.500117 -4.419088 -1.963952 0.363551 -0.894730 0.581340 4.669743 0.700709 -0.372580 3.926345 0.000000 0.000000 0.000000 26.017450 -7.771145 9.500117 -0.732835 0.579276 -1.309491 3.038785 -0.971338 3.129334 -1.121916 -2.551110 2.165425 0.000000 0.000000 0.000000 10.768375 1.750906 3.775326 -12.172584 -0.046545 -2.197417 0.000000 0.000000 0.000000 6.923855 0.684995 -3.109004 -5.803281 -3.120569 -2.327111 0.000000 0.000000 0.000000
0.100799 0.167289 0.119995 0.658772 -1.026518 -2.063811 0.000000 0.000000 0.000000 -25.948551 11.598909 -4.556305 -42.761961 -11.371154 -0.211839 0.000000 0.000000 0.000000 26.016461 -7.770922 9.499491 -3.494910 -1.511881 1.196311 0.552751 0.385961 4.828458 1.216740 -2.013995 3.160780 0.000000 0.000000 0.000000 26.016461 -7.770922 9.499491 -0.554079 0.464803 -0.897060 4.610419 -0.956730 0.966090 -0.820676 -0.119721 3.270364 0.000000 0.000000 0.000000 10.772199 1.795360 4.052337 -12.526010 -0.002738 -2.437831 0.000000 0.000000 0.000000 7.013229 0.739674 -3.094096 -5.585622 -3.064907 -2.083720 0.000000 0.000000 0.000000
0.100955 0.167110 0.119970 0.715765 -1.060104 -2.131744 0.000000 0.000000 0.000000 -25.946037 11.747545 -4.270569 -43.000430 -11.285643 -0.460746 0.000000 0.000000 0.000000 25.943398 -7.770152 9.497515 -3.066954 -1.478551 1.491144 0.645667 0.200963 4.589660 1.425186 -2.127536 2.387180 0.000000 0.000000 0.000000 25.943398 -7.770152 9.497515 -0.856160 0.283809 -0.722755 5.484040 -0.366349 -1.721553 -0.114134 1.451952 4.955427 0.000000 0.000000 0.000000 10.710852 1.837756 4.125168 -13.107121 -0.047100 -2.579663 0.000000 0.000000 0.000000 7.002656 0.775554 -3.082197 -5.275209 -3.054298 -1.983334 0.000000 0.000000 0.000000
